<svg fill="none" height="18" viewBox="0 0 19 18" width="19" xmlns="http://www.w3.org/2000/svg" xmlns:xlink="http://www.w3.org/1999/xlink"><clipPath id="a"><path d="m.75 0h18v18h-18z"/></clipPath><g clip-path="url(#a)" stroke="#fff" stroke-linecap="round" stroke-linejoin="round" stroke-width="2"><path d="m9 3h-5.25c-.39782 0-.77936.15804-1.06066.43934s-.43934.66284-.43934 1.06066v10.5c0 .3978.15804.7794.43934 1.0607s.66284.4393 1.06066.4393h10.5c.3978 0 .7794-.158 1.0607-.4393s.4393-.6629.4393-1.0607v-5.25"/><path d="m14.625 1.875c.2984-.29837.703-.46599 1.125-.46599s.8266.16762 1.125.46599.466.70305.466 1.125c0 .42196-.1676.82663-.466 1.125l-7.125 7.125-3 .75.75-3z"/></g></svg>