<svg fill="none" height="20" viewBox="0 0 20 20" width="20" xmlns="http://www.w3.org/2000/svg"><path d="m12.9167 6.25 2.9166-2.91667m1.6667-1.66667-1.6667 1.66667zm-8.00832 8.00834c.43029.4246.77232.93 1.00642 1.4873.2342.5573.3557 1.1554.3578 1.7599.002.6045-.1156 1.2034-.346 1.7622-.2303.5589-.569 1.0666-.99643 1.4941-.42743.4274-.93519.766-1.49404.9964s-1.15775.348-1.76222.346c-.60447-.0021-1.20258-.1236-1.75987-.3578-.55729-.2341-1.06277-.5762-1.48732-1.0064-.8349-.8645-1.29687-2.0222-1.28643-3.224.01045-1.2017.49247-2.3513 1.34226-3.20104.84978-.84978 1.99934-1.33181 3.20108-1.34225 1.20173-.01044 2.35949.45153 3.22392 1.28642zm0 0 3.42502-3.425zm3.42502-3.425 2.5 2.5 2.9166-2.91667-2.5-2.5z" stroke="#8a8a8a" stroke-linecap="round" stroke-linejoin="round"/></svg>