<svg fill="none" height="20" viewBox="0 0 20 20" width="20" xmlns="http://www.w3.org/2000/svg"><g stroke="#8a8a8a" stroke-linecap="round" stroke-linejoin="round"><path d="m10 12.5c1.3807 0 2.5-1.1193 2.5-2.5 0-1.38071-1.1193-2.5-2.5-2.5-1.38071 0-2.5 1.11929-2.5 2.5 0 1.3807 1.11929 2.5 2.5 2.5z"/><path d="m16.1667 12.5002c-.1109.2513-.144.5301-.095.8005.049.2703.1779.5197.37.7161l.05.05c.155.1548.2779.3386.3618.541.0838.2023.127.4192.127.6382s-.0432.4359-.127.6382c-.0839.2024-.2068.3862-.3618.541-.1548.1549-.3386.2779-.5409.3617-.2024.0839-.4192.1271-.6383.1271-.219 0-.4359-.0432-.6382-.1271-.2023-.0838-.3861-.2068-.5409-.3617l-.05-.05c-.1964-.1922-.4459-.321-.7162-.37-.2703-.0491-.5491-.016-.8005.095-.2465.1056-.4567.281-.6047.5046-.1481.2235-.2276.4855-.2286.7537v.1417c0 .442-.1756.8659-.4882 1.1785-.3125.3125-.7365.4881-1.1785.4881-.44202 0-.86594-.1756-1.1785-.4881-.31257-.3126-.48816-.7365-.48816-1.1785v-.075c-.00645-.2759-.09573-.5434-.25624-.7678s-.38481-.3953-.64376-.4906c-.25135-.1109-.53016-.144-.80049-.095s-.51978.1779-.71618.37l-.05.05c-.15479.155-.3386.2779-.54093.3618s-.41921.127-.63823.127c-.21903 0-.43591-.0431-.63824-.127s-.38614-.2068-.54093-.3618c-.15496-.1548-.27789-.3386-.36177-.5409-.08387-.2023-.12704-.4192-.12704-.6382 0-.2191.04317-.4359.12704-.6383.08388-.2023.20681-.3861.36177-.5409l.05-.05c.19211-.1964.32099-.4459.37-.7162.04902-.2703.01593-.5491-.095-.8005-.10564-.2464-.28104-.4567-.50461-.6047-.22358-.1481-.48557-.2275-.75372-.2286h-.14167c-.44203 0-.86595-.1756-1.17851-.4882-.31256-.3125-.488156-.7364-.488156-1.1785 0-.442.175596-.86592.488156-1.17848s.73648-.48816 1.17851-.48816h.075c.27583-.00645.54334-.09573.76775-.25624s.39535-.38481.49058-.64376c.11093-.25134.14402-.53016.09501-.80049-.04902-.27033-.17789-.51978-.37001-.71617l-.05-.05c-.15496-.15479-.27789-.33861-.36176-.54094-.08388-.20233-.12705-.41921-.12705-.63823 0-.21903.04317-.4359.12705-.63823.08387-.20233.2068-.38615.36176-.54094.15479-.15496.33861-.27789.54094-.36176.20233-.08388.4192-.12705.63823-.12705s.4359.04317.63823.12705c.20233.08387.38615.2068.54094.36176l.05.05c.1964.19212.44584.32099.71617.37001.27033.04901.54915.01592.80049-.09501h.06667c.24647-.10563.45668-.28103.60474-.50461.14807-.22357.22752-.48557.22859-.75372v-.14167c0-.44202.1756-.86595.48816-1.17851s.73648-.488154 1.17847-.488154c.4421 0 .866.175594 1.1786.488154.3125.31256.4881.73649.4881 1.17851v.075c.0011.26816.0805.53015.2286.75372.1481.22358.3583.39898.6047.50462.2514.11093.5302.14402.8005.095.2704-.04902.5198-.17789.7162-.37l.05-.05c.1548-.15496.3386-.2779.5409-.36177.2024-.08387.4192-.12705.6383-.12705.219 0 .4359.04318.6382.12705s.3861.20681.5409.36177c.155.15478.2779.3386.3618.54093s.1271.41921.1271.63823c0 .21903-.0432.43591-.1271.63824s-.2068.38614-.3618.54093l-.05.05c-.1921.1964-.3209.44585-.37.71617-.049.27033-.0159.54915.095.8005v.06666c.1057.24648.2811.45668.5047.60475.2235.14806.4855.22752.7537.22859h.1416c.4421 0 .866.17559 1.1785.48815.3126.31256.4882.73648.4882 1.17855 0 .442-.1756.8659-.4882 1.1785-.3125.3125-.7364.4881-1.1785.4881h-.075c-.2681.0011-.5301.0806-.7537.2286-.2236.1481-.399.3583-.5046.6048z"/></g></svg>