<svg fill="none" height="18" viewBox="0 0 19 18" width="19" xmlns="http://www.w3.org/2000/svg"><g stroke-linecap="round" stroke-linejoin="round" stroke-width="2"><path d="m2.5 4.5h1.5 12" stroke="#fa2c5a"/><path d="m6.25 4.5v-1.5c0-.39782.15804-.77936.43934-1.06066s.66284-.43934 1.06066-.43934h3c.3978 0 .7794.15804 1.0607.43934s.4393.66284.4393 1.06066v1.5m2.25 0v10.5c0 .3978-.158.7794-.4393 1.0607s-.6629.4393-1.0607.4393h-7.5c-.39782 0-.77936-.158-1.06066-.4393s-.43934-.6629-.43934-1.0607v-10.5z" stroke="#fa2c5a"/><g stroke="#fff"><path d="m10.75 8.25v4.5"/><path d="m7.75 8.25v4.5"/></g></g></svg>