<svg fill="none" height="20" viewBox="0 0 20 20" width="20" xmlns="http://www.w3.org/2000/svg"><g stroke="#8a8a8a" stroke-linecap="round" stroke-linejoin="round"><path d="m19.1666 17.5001v-1.6667c-.0005-.7386-.2463-1.456-.6988-2.0397-.4525-.5838-1.0861-1.0007-1.8012-1.1853"/><path d="m14.1667 17.5v-1.6667c0-.884-.3512-1.7319-.9763-2.357s-1.473-.9763-2.357-.9763h-6.66669c-.88406 0-1.7319.3512-2.35703.9763-.62512.6251-.976306 1.473-.976306 2.357v1.6667"/><path d="m13.3334 2.6084c.717.18358 1.3525.60058 1.8063 1.18526.4539.58467.7002 1.30376.7002 2.04391 0 .74014-.2463 1.45923-.7002 2.0439-.4538.58468-1.0893 1.00168-1.8063 1.18526"/><path d="m7.49996 9.16667c1.84095 0 3.33334-1.49239 3.33334-3.33334s-1.49239-3.33333-3.33334-3.33333-3.33333 1.49238-3.33333 3.33333 1.49238 3.33334 3.33333 3.33334z"/></g></svg>