<svg fill="none" height="32" viewBox="0 0 32 32" width="32" xmlns="http://www.w3.org/2000/svg"><circle cx="16" cy="16" fill="#0d28a6" r="16"/><path d="m25.1667 8.50008c-.798.5629-1.6816.99342-2.6167 1.275-.5018-.57708-1.1688-.98609-1.9108-1.17173-.7419-.18564-1.5229-.13894-2.2374.13377-.7145.27272-1.3281.75829-1.7576 1.39108-.4296.6327-.6544 1.3822-.6442 2.1469v.8333c-1.4644.038-2.9156-.2868-4.2241-.9454-1.3086-.6587-2.43393-1.6307-3.27586-2.82959 0 0-3.33333 7.49999 4.16666 10.83329-1.7162 1.165-3.7607 1.7492-5.83333 1.6667 7.50003 4.1667 16.66663 0 16.66663-9.5833-.0007-.2321-.023-.4637-.0666-.6917.8505-.8387 1.4507-1.89773 1.7333-3.05832z" stroke="#fff" stroke-linecap="round" stroke-linejoin="round"/></svg>