<svg fill="none" height="32" viewBox="0 0 32 32" width="32" xmlns="http://www.w3.org/2000/svg"><circle cx="16" cy="16" fill="#0d28a6" r="16"/><g stroke="#fff" stroke-linecap="round" stroke-linejoin="round"><path d="m20.1666 7.6665h-8.3333c-2.30119 0-4.16667 1.86548-4.16667 4.1667v8.3333c0 2.3012 1.86548 4.1667 4.16667 4.1667h8.3333c2.3012 0 4.1667-1.8655 4.1667-4.1667v-8.3333c0-2.30122-1.8655-4.1667-4.1667-4.1667z"/><path d="m19.3334 15.4748c.1028.6935-.0156 1.4018-.3386 2.0241-.3229.6224-.8338 1.127-1.4601 1.4423-.6262.3152-1.336.4249-2.0282.3135s-1.3317-.4382-1.8274-.934c-.4958-.4957-.8226-1.1352-.934-1.8274s-.0017-1.402.3135-2.0282c.3153-.6263.8199-1.1372 1.4423-1.4601.6223-.323 1.3306-.4414 2.0241-.3386.7075.1049 1.3624.4346 1.8681.9403s.8354 1.1606.9403 1.8681z"/><path d="m20.5834 11.4165h.0083"/></g></svg>